<?xml version="1.0" ?><!DOCTYPE svg  PUBLIC '-//W3C//DTD SVG 1.1//EN'  'http://www.w3.org/Graphics/SVG/1.1/DTD/svg11.dtd'><svg style="enable-background:new 0 0 500 500;" version="1.1" viewBox="0 0 500 500" xml:space="preserve" xmlns="http://www.w3.org/2000/svg" xmlns:xlink="http://www.w3.org/1999/xlink"><g id="database-gear"><g><circle cx="250" cy="250" r="250" style="fill:#F4F1F0;"/><g id="_x35_"><g><path d="M214.404,187.37c49.376,0,89.404-11.453,89.404-25.545c0-14.092-40.028-25.542-89.404-25.542      S125,147.732,125,161.824C125,175.917,165.028,187.37,214.404,187.37z" style="fill:#675F58;"/><path d="M125,182.281v30.631c0,14.093,40.028,25.543,89.404,25.543c7.645,0,15.023-0.307,22.103-0.819      c1.855-1.272,4.004-2.113,6.326-2.403c0.271-4.14,2.317-8.065,5.849-10.607l6.934-5.366c2.512-2.062,5.675-3.19,8.979-3.19      c1.227,0,2.441,0.16,3.619,0.456c1.801-3.532,4.975-6.244,8.93-7.286l8.464-2.534c1.389-0.45,2.827-0.678,4.297-0.678      c2.827,0,5.588,0.849,7.997,2.45c0.325,0.211,0.641,0.434,0.939,0.667c0.603-0.545,1.253-1.047,1.953-1.497      c0.966-0.61,1.985-1.003,3.017-1.37v-23.997c-25.537,17.161-81.369,17.86-89.404,17.86S150.532,199.441,125,182.281z" style="fill:#675F58;"/><path d="M214.404,289.54c1.308,0,2.577-0.038,3.868-0.055c-0.83-2.268-1.139-4.726-0.694-7.204      l1.357-8.795c0.591-4.606,3.45-8.523,7.405-10.699c-1.502-3.824-1.253-8.154,0.728-11.892      c-6.169,0.283-10.77,0.332-12.663,0.332c-8.035,0-63.873-0.7-89.404-17.861v30.631C125,278.093,165.028,289.54,214.404,289.54z" style="fill:#675F58;"/><path d="M229.27,325.662c-4.025-1.791-7.096-5.339-8.116-9.744l-2.224-8.404      c-0.526-1.741-0.608-3.51-0.461-5.246c-1.774,0.033-3.233,0.044-4.063,0.044c-8.035,0-63.873-0.694-89.404-17.86v30.631      c0,14.096,40.028,25.543,89.404,25.543c6.624,0,13.064-0.217,19.276-0.607l-1.763-2.409      C229.199,334.152,228.337,329.758,229.27,325.662z" style="fill:#675F58;"/></g><path d="M372.797,292.801l-13.227-3.511c0-0.054,0-0.098-0.011-0.146     c-0.044-1.611-0.125-3.206-0.331-4.785l2.078-0.841l10.607-4.329c1.443-0.586,2.229-2.116,1.785-3.397l-2.403-8.984     c-0.261-1.356-1.721-2.278-3.234-2.056l-2.658,0.363l-11.186,1.552c-0.624-1.378-1.346-2.74-2.089-4.048l9.993-9.305     c1.096-1.044,1.297-2.737,0.429-3.787l-1.275-1.763l-4.183-5.778c-0.542-0.898-1.633-1.297-2.724-1.126     c-0.347,0.054-0.678,0.155-1.009,0.329l-12.907,7.08c-0.917-0.83-1.871-1.625-2.848-2.368l6.114-12.642     c0.667-1.396,0.233-3.052-0.966-3.711l-7.802-5.07c-0.862-0.67-2.1-0.586-3.082,0.065c-0.244,0.166-0.488,0.339-0.694,0.581     l-5.843,6.952l-4.085,4.842c-0.044,0.033-0.065,0.065-0.093,0.136c-0.293-0.103-0.548-0.207-0.862-0.274l0.315-15.381     c0.022-1.544-1.064-2.878-2.409-2.952l-5.132-0.746l-3.467-0.508l-0.624-0.089c-0.646-0.157-1.297,0.003-1.855,0.355     c-0.608,0.393-1.112,1.017-1.302,1.801l-2.469,8.911l-1.617,5.867c-0.911,0.027-1.85,0.06-2.756,0.13     c-0.065-0.171-0.125-0.339-0.163-0.51l-2.896-6.589l-0.12-0.276l-1.166-2.672l-2.013-4.59c-0.261-0.583-0.694-1.012-1.172-1.33     c-0.694-0.458-1.524-0.648-2.301-0.366l-8.908,2.661c-1.323,0.285-2.197,1.761-1.964,3.285l1.096,6.635l1.346,8.127     c-0.966,0.418-1.894,0.847-2.849,1.313c-0.07-0.07-0.13-0.16-0.217-0.244l-6.863-6.896l-4.03-4.05     c-1.053-1.085-2.778-1.239-3.798-0.325l-7.357,5.696c-0.575,0.372-0.933,0.985-1.052,1.669c-0.125,0.681,0,1.43,0.385,2.086     l5.745,9.746l1.948,3.304c-0.857,0.843-1.671,1.745-2.463,2.642c-0.044,0-0.082-0.032-0.12-0.032l-9.83-4.454l-4.243-1.921     c-1.372-0.64-3.038-0.166-3.651,1.061l-1.107,1.799l-3.754,6.12c-0.792,1.123-0.488,2.794,0.732,3.771l7.042,5.626l5.013,4.009     c0.044,0.017,0.07,0.055,0.082,0.055c-0.451,1.172-0.895,2.354-1.264,3.592c-0.054-0.011-0.092-0.044-0.141-0.044l-15.414-0.434     c-1.524-0.033-2.875,1.053-2.995,2.42l-1.421,9.201c-0.282,1.329,0.656,2.745,2.154,3.184l4.666,1.329l10.167,2.875     c0.054,0,0.124,0,0.173,0.012c0,1.106,0.059,2.197,0.13,3.266c-0.071,0.011-0.157,0.043-0.206,0.076l-14.29,5.794     c-0.537,0.223-0.939,0.586-1.264,0.998c-0.553,0.706-0.797,1.59-0.494,2.398l2.387,8.995c0.244,1.335,1.704,2.268,3.239,2.051     l15.121-2.072c0.462,1.117,1.009,2.202,1.541,3.255l-1.117,1.064l-9.728,9.201c-1.112,1.053-1.281,2.778-0.396,3.798l5.491,7.498     c0.228,0.358,0.575,0.618,0.96,0.803c0.814,0.418,1.866,0.45,2.799-0.065l0.629-0.347l12.489-6.923     c0.797,0.824,1.686,1.611,2.582,2.398l-1.015,2.268l-1.34,2.994l-3.597,8.02c-0.613,1.421-0.131,3.049,1.096,3.656l7.932,4.84     c1.106,0.786,2.794,0.455,3.776-0.738l9.055-11.491c1.253,0.511,2.479,0.955,3.766,1.356l-0.277,14.627     c-0.027,1.541,1.047,2.881,2.426,2.962l7.85,1.129l1.357,0.195c1.335,0.304,2.751-0.679,3.158-2.159l2.571-9.348l1.312-4.797     c0.706,0,1.433-0.011,2.122-0.07l3.282,8.144l1.085,2.718l0.933,2.322c0.603,1.427,2.111,2.235,3.381,1.785l9.027-2.376     c0.52-0.093,0.955-0.397,1.308-0.787c0.548-0.618,0.884-1.486,0.76-2.436l-0.76-5.768l-0.7-5.067l-0.347-2.637     c0.342-0.13,0.71-0.314,1.047-0.455c0.928-0.396,1.839-0.793,2.794-1.248l0.336,0.336l9.343,9.581     c1.107,1.08,2.827,1.227,3.847,0.331l7.379-5.626c1.155-0.749,1.459-2.436,0.678-3.765l-6.711-11.557     c1.068-1.074,2.127-2.235,3.119-3.385l12.436,5.626c1.416,0.635,3.043,0.168,3.699-1.069l4.856-7.953     c0.786-1.074,0.461-2.773-0.711-3.722l-10.829-8.638c0.543-1.361,1.063-2.745,1.492-4.166l13.699,0.151     c1.562,0.011,2.848-1.106,2.94-2.446l1.247-9.229C375.244,294.623,374.278,293.207,372.797,292.801z M313.064,250.809     l0.211-1.454c4.346,1.085,8.393,2.818,12.056,5.083c2.1,1.297,4.021,2.832,5.843,4.455c3.439,3.076,6.43,6.635,8.702,10.628     l-14.545,5.794l-1.443,0.575c-1.34-1.883-2.93-3.559-4.726-5.013c-1.845-1.476-3.885-2.724-6.098-3.684     c-0.732-0.32-1.449-0.684-2.219-0.94L313.064,250.809z M309.598,281.879c1.514,1.14,2.696,2.664,3.467,4.384     c0.83,1.845,1.161,3.906,0.852,6.044c-0.136,1.021-0.461,1.953-0.852,2.843c-0.771,1.785-1.953,3.32-3.467,4.454     c-1.645,1.243-3.651,2.002-5.789,2.165c-0.819,0.065-1.649,0.065-2.49-0.054c-5.599-0.814-9.56-5.648-9.483-11.145     c0.005-0.482-0.006-0.954,0.06-1.448c0.896-6.082,6.537-10.303,12.598-9.424C306.435,279.98,308.144,280.783,309.598,281.879z      M303.809,254.213l-1.573,10.82c-3.853,0.093-7.492,1.118-10.791,2.778c-1.617,0.819-3.185,1.747-4.601,2.892l-13.553-10.661     c5.078-4.883,11.301-8.474,18.153-10.392c3.938-1.109,8.11-1.603,12.364-1.516c0.299,0.005,0.586-0.046,0.89-0.035     L303.809,254.213z M262.75,305.1c-0.755-2.104-1.286-4.308-1.698-6.532c-0.771-4.112-0.95-8.382-0.445-12.738     c0.049-0.412,0.038-0.814,0.104-1.237c0.716-5.057,2.321-9.744,4.6-13.986c0.733-1.357,1.525-2.68,2.382-3.939l13.356,10.509     c-0.873,1.399-1.6,2.908-2.186,4.492c-0.646,1.698-1.129,3.488-1.405,5.365c-0.401,2.772-0.282,5.49,0.189,8.09     c0.223,1.253,0.505,2.484,0.9,3.673l-6.119,2.441L262.75,305.1z M292.535,332.08c-2.025-0.505-3.95-1.215-5.816-2.029     c-1.524-0.656-3.017-1.372-4.443-2.176c-4.807-2.701-9.082-6.174-12.483-10.395c-1.178-1.448-2.29-2.951-3.256-4.535l7.324-2.93     l8.8-3.505c2.333,2.973,5.317,5.458,8.784,7.183c1.128,0.564,2.316,1.053,3.543,1.438l-1.736,11.985L292.535,332.08z      M325.331,326.953c-4.753,2.951-10.091,4.986-15.733,5.881c-0.217,0.033-0.45,0.044-0.668,0.07     c-2.126,0.31-4.302,0.429-6.499,0.413c-0.429-0.006-0.862,0.026-1.302,0.005l2.332-16.097c0.076-0.282,0.146-0.569,0.201-0.852     c1.601-0.033,3.131-0.288,4.655-0.63c0.429-0.098,0.862-0.168,1.28-0.282c1.199-0.325,2.344-0.771,3.467-1.247     c1.616-0.684,3.185-1.481,4.628-2.49l7.639,6.017l6.011,4.741C329.471,324.159,327.441,325.641,325.331,326.953z M345.09,296.832     c-1.025,7.215-3.824,13.736-7.899,19.249l-11.859-9.375l-1.443-1.134c0.554-0.809,0.955-1.753,1.443-2.632     c1.427-2.626,2.577-5.431,3.027-8.55c0.531-3.674,0.238-7.281-0.711-10.645l15.788-6.294     C345.421,283.475,346.088,290.082,345.09,296.832z" style="fill:#FF931E;"/></g></g></g><g id="Layer_1"/></svg>