<?xml version="1.0" ?><!DOCTYPE svg  PUBLIC '-//W3C//DTD SVG 1.1//EN'  'http://www.w3.org/Graphics/SVG/1.1/DTD/svg11.dtd'><svg style="enable-background:new 0 0 500 500.002;" version="1.1" viewBox="0 0 500 500.002" xml:space="preserve" xmlns="http://www.w3.org/2000/svg" xmlns:xlink="http://www.w3.org/1999/xlink"><g id="magnifier"><g><path d="M249.999,0C111.93,0,0,111.939,0,249.996c0,138.076,111.93,250.006,249.999,250.006    S500,388.072,500,249.996C500,111.939,388.067,0,249.999,0z" style="fill:#7DBEBD;"/><g id="_x32_9"><path d="M284.261,299.456l10.114-8.091l17.053,17.948c2.966,3.706,2.36,9.1-1.327,12.05     c-3.706,2.978-9.105,2.377-12.064-1.329L284.261,299.456z" style="fill:#CCD1D9;"/><path d="M286.606,308.769l16.336-13.078l53.123,60.937c4.788,5.986,3.825,14.698-2.156,19.481     c-5.981,4.783-14.703,3.822-19.481-2.154L286.606,308.769z" style="fill:#656D78;"/><path d="M141.246,208.715c-4.516,52.836,34.669,99.346,87.51,103.867     c52.836,4.511,99.34-34.674,103.853-87.52c4.511-52.836-34.662-99.347-87.498-103.858     C192.268,116.693,145.762,155.869,141.246,208.715z M163.119,210.578c3.476-40.699,39.413-70.979,80.132-67.496     c40.687,3.473,70.986,39.418,67.5,80.117c-3.478,40.709-39.423,70.988-80.125,67.515     C189.92,287.222,159.633,251.287,163.119,210.578z" style="fill:#DBDFE4;"/><path d="M244.668,126.424c-49.969-4.269-93.943,32.772-98.197,82.737     c-4.276,49.964,32.763,93.933,82.737,98.202c49.952,4.269,93.926-32.763,98.202-82.737     C331.683,174.662,294.624,130.693,244.668,126.424z M309.677,223.112c-3.43,40.117-38.853,69.96-78.956,66.525     c-40.117-3.425-69.95-38.856-66.525-78.963c3.427-40.117,38.851-69.96,78.958-66.525     C283.261,147.574,313.109,182.995,309.677,223.112z" style="fill:#FFFFFF;"/><path d="M230.721,289.638c40.112,3.424,75.533-26.418,78.956-66.525     c3.432-40.107-26.411-75.538-66.523-78.953c-40.112-3.434-75.531,26.408-78.958,66.515     C160.771,250.782,190.599,286.203,230.721,289.638z" style="opacity:0.5;fill:#E7E1E2;"/></g></g></g><g id="Layer_1"/></svg>